HIERARCHY
ROOT Hips
{
	OFFSET 0.00000 0.00000 0.00000
	CHANNELS 6 Xposition Yposition Zposition Zrotation Yrotation Xrotation 
	JOINT LHipJoint
	{
		OFFSET 0 0 0
		CHANNELS 3 Zrotation Yrotation Xrotation
		JOINT LeftHip
		{
			OFFSET 1.62964 -1.40469 0.78906
			CHANNELS 3 Zrotation Yrotation Xrotation
			JOINT LeftKnee
			{
				OFFSET 2.29640 -6.30932 0.00000
				CHANNELS 3 Zrotation Yrotation Xrotation
				JOINT LeftAnkle
				{
					OFFSET 2.29451 -6.30412 0.00000
					CHANNELS 3 Zrotation Yrotation Xrotation
					JOINT LeftToe
					{
						OFFSET 0.03611 -0.09921 1.56387
						CHANNELS 3 Zrotation Yrotation Xrotation
						End Site
						{
							OFFSET 0.00000 -0.00000 0.80291
						}
					}
				}
			}
		}
	}
	JOINT RHipJoint
	{
		OFFSET 0 0 0
		CHANNELS 3 Zrotation Yrotation Xrotation
		JOINT RightHip
		{
			OFFSET -1.73712 -1.40469 0.78906
			CHANNELS 3 Zrotation Yrotation Xrotation
			JOINT RightKnee
			{
				OFFSET -2.28137 -6.26801 0.00000
				CHANNELS 3 Zrotation Yrotation Xrotation
				JOINT RightAnkle
				{
					OFFSET -2.28681 -6.28298 0.00000
					CHANNELS 3 Zrotation Yrotation Xrotation
					JOINT RightToe
					{
						OFFSET -0.15927 -0.43759 1.61103
						CHANNELS 3 Zrotation Yrotation Xrotation
						End Site
						{
							OFFSET -0.00000 -0.00000 0.84630
						}
					}
				}
			}
		}
	}
	JOINT lowerback
	{
		OFFSET 0 0 0
		CHANNELS 3 Zrotation Yrotation Xrotation
		JOINT Chest
		{
			OFFSET -0.04227 2.04338 -0.00225
			CHANNELS 3 Zrotation Yrotation Xrotation
			JOINT Chest2
			{
				OFFSET -0.02148 2.04482 -0.04273
				CHANNELS 3 Zrotation Yrotation Xrotation
				JOINT lowerneck
				{
					OFFSET 0 0 0
					CHANNELS 3 Zrotation Yrotation Xrotation
					JOINT Neck
					{
						OFFSET 0.09180 1.44629 0.19359
						CHANNELS 3 Zrotation Yrotation Xrotation
						JOINT Head
						{
							OFFSET 0.00887 1.40645 0.14750
							CHANNELS 3 Zrotation Yrotation Xrotation
							End Site
							{
								OFFSET -0.00669 1.50671 0.03707
							}
						}
					}
				}
				JOINT LeftCollar
				{
					OFFSET 0 0 0
					CHANNELS 3 Zrotation Yrotation Xrotation
					JOINT LeftShoulder
					{
						OFFSET 2.17674 1.86763 -0.06520
CHANNELS 3 Zrotation Xrotation Yrotation
						JOINT LeftElbow
						{
OFFSET 0 -4.657760 0.000000
CHANNELS 3 Zrotation Xrotation Yrotation
							JOINT LeftWrist
							{
OFFSET 0 -3.555390 0.000000
CHANNELS 3 Zrotation Xrotation Yrotation
								JOINT lhand
								{
									OFFSET 0 0 0
CHANNELS 3 Zrotation Xrotation Yrotation
									JOINT LFingers
									{
OFFSET 0 -0.707260 0.000000
CHANNELS 3 Zrotation Xrotation Yrotation
										End Site
										{
OFFSET 0 -0.570220 0.000000
										}
									}
								}
								JOINT LThumb
								{
OFFSET 0 0.000000 0.000000
CHANNELS 3 Zrotation Xrotation Yrotation
									End Site
									{
OFFSET 0 -0.578920 0.578920
									}
								}
							}
						}
					}
				}
				JOINT RightCollar
				{
					OFFSET 0 0 0
					CHANNELS 3 Zrotation Yrotation Xrotation
					JOINT RightShoulder
					{
						OFFSET -2.80694 1.55459 -0.32496
CHANNELS 3 Zrotation Xrotation Yrotation
						JOINT RightElbow
						{
OFFSET 0 -4.719250 -0.000000
CHANNELS 3 Zrotation Xrotation Yrotation
							JOINT RightWrist
							{
OFFSET 0 -3.569900 0.000000
CHANNELS 3 Zrotation Xrotation Yrotation
								JOINT rhand
								{
									OFFSET 0 0 0
CHANNELS 3 Zrotation Xrotation Yrotation
									JOINT RFingers
									{
OFFSET 0 -0.507760 0.000000
CHANNELS 3 Zrotation Xrotation Yrotation
										End Site
										{
OFFSET 0 -0.409370 0.000000
										}
									}
								}
								JOINT RThumb
								{
OFFSET 0 0.000000 0.000000
CHANNELS 3 Zrotation Xrotation Yrotation
									End Site
									{
OFFSET 0 -0.415620 0.415620
									}
								}
							}
						}
					}
				}
			}
		}
	}
}
MOTION
Frames: 9
Frame Time: 0.008333333333333333
16.513800 19.681300 20.750400 178.200000 -3.111100 -153.277000 0.000000 0.000000 0.000000 -21.177000 -14.400800 -21.180000 0.215000 2.984900 8.236800 -0.050400 -7.455000 -3.998300 0.803300 -5.720200 -15.974800 0.000000 0.000000 0.000000 19.039700 13.931100 -19.952400 -0.135600 -2.373200 6.538100 -1.182100 3.506000 -19.687700 -1.341200 7.332600 -20.704500 -6.296000 -2.404200 -30.428800 0.303800 -1.680100 -1.182300 3.001100 -1.452400 14.818600 -1.223000 -2.017500 -4.188700 5.210500 -3.873400 13.193000 1.580700 -1.885800 4.765400 -0.000000 -0.000000 0.000000 5.614600 1.757600 -22.042600 12.639200 -20.756200 2.323800 21.370000 -1.664200 12.302800 0.000000 0.000000 0.000000 -7.125000 0.000000 0.000000 -4.069900 16.820600 -2.725000 -0.000000 -0.000000 0.000000 1.773200 8.020800 5.507800 -19.068000 -29.503100 -5.064300 -12.286300 6.221000 51.292600 0.000000 0.000000 0.000000 7.125000 0.000000 -0.000000 60.371700 75.242600 -46.414900
16.513970 19.681130 20.749125 178.212746 -3.094955 -153.254907 0.000000 0.000000 0.000000 -21.168078 -14.361202 -21.215774 0.215340 2.987449 8.243938 -0.052099 -7.478878 -3.975867 0.802365 -5.717056 -15.965793 0.000000 0.000000 0.000000 19.048962 13.951834 -19.963022 -0.135090 -2.368951 6.526373 -1.105792 3.276908 -19.052512 -1.413854 7.519885 -21.265165 -6.292176 -2.411508 -30.463810 0.306604 -1.689107 -1.175502 2.997361 -1.456989 14.843243 -1.257840 -2.050640 -4.276734 5.257236 -3.936536 13.317488 1.595571 -1.915286 4.822248 0.000000 0.000000 0.000000 5.604148 1.725819 -21.975130 12.633932 -20.748467 2.322016 21.206848 -1.635309 12.136249 0.000000 0.000000 0.000000 -7.125000 0.000000 0.000000 -4.177563 17.012643 -2.779809 0.000000 0.000000 0.000000 1.746858 8.060823 5.635177 -19.114566 -29.560798 -5.087243 -12.257493 6.074673 51.133017 0.000000 0.000000 0.000000 7.125000 0.000000 0.000000 59.827435 75.166547 -45.858994
16.513930 19.680121 20.747641 178.231788 -3.083776 -153.227217 0.000000 0.000000 0.000000 -21.145725 -14.352241 -21.243085 0.215470 2.988390 8.246459 -0.041558 -7.668467 -4.405170 1.301922 -7.157608 -20.212748 0.000000 0.000000 0.000000 19.078580 13.917657 -20.003303 -0.135140 -2.369669 6.528427 -1.179667 3.569711 -19.650751 -1.262597 7.115953 -20.062182 -6.286254 -2.427839 -30.512949 0.318012 -1.710636 -1.165696 2.996350 -1.467593 14.879427 -1.272394 -2.080213 -4.313145 5.287045 -3.989250 13.385667 1.603306 -1.940506 4.852026 0.000000 0.000000 0.000000 5.591877 1.685645 -21.826658 12.628733 -20.740805 2.320161 21.192480 -1.545561 12.184095 0.000000 0.000000 0.000000 -7.125000 0.000000 0.000000 -4.189115 16.963220 -2.792158 0.000000 0.000000 0.000000 1.721285 8.040620 5.713940 -19.125318 -29.574078 -5.092559 -12.346623 6.108118 51.127814 0.000000 0.000000 0.000000 7.125000 0.000000 0.000000 59.753374 75.198707 -45.827642
16.513516 19.679206 20.746166 178.240098 -3.086736 -153.221943 0.000000 0.000000 0.000000 -21.141359 -14.331462 -21.250562 0.215665 2.989753 8.250241 -0.046622 -7.630616 -4.245218 1.097578 -6.550832 -18.430050 0.000000 0.000000 0.000000 19.101255 13.851803 -20.041825 -0.136408 -2.380681 6.559036 -1.208467 3.706913 -19.882456 -1.294535 7.203758 -20.322664 -6.302180 -2.452535 -30.527006 0.339782 -1.738918 -1.160407 3.016742 -1.482071 14.896066 -1.278856 -2.061290 -4.308259 5.309043 -3.962721 13.356727 1.612860 -1.926526 4.841880 0.000000 0.000000 0.000000 5.569330 1.665582 -21.709725 12.629591 -20.742055 2.320434 21.256536 -1.460811 12.277113 0.000000 0.000000 0.000000 -7.125000 0.000000 0.000000 -4.147892 16.858414 -2.774021 0.000000 0.000000 0.000000 1.677862 8.027911 5.777152 -19.115415 -29.561834 -5.087662 -12.443233 6.158591 51.129956 0.000000 0.000000 0.000000 7.125000 0.000000 0.000000 59.700945 75.236645 -45.821358
16.512761 19.678960 20.744283 178.235813 -3.093496 -153.235975 0.000000 0.000000 0.000000 -21.157469 -14.292477 -21.242916 0.215840 2.990860 8.253339 -0.058031 -7.525661 -3.860214 0.680484 -5.261950 -14.659952 0.000000 0.000000 0.000000 19.102220 13.800247 -20.061177 -0.138437 -2.398098 6.607278 -1.188532 3.652006 -19.719557 -1.438849 7.581001 -21.449839 -6.324442 -2.470133 -30.525475 0.350688 -1.752945 -1.146013 3.035076 -1.489782 14.914620 -1.218198 -1.980104 -4.351762 5.283151 -3.833573 13.234067 1.602461 -1.857846 4.805692 0.000000 0.000000 0.000000 5.554261 1.642188 -21.646379 12.634713 -20.749649 2.322237 21.297855 -1.376931 12.294520 0.000000 0.000000 0.000000 -7.125000 0.000000 0.000000 -4.119812 16.836074 -2.757203 0.000000 0.000000 0.000000 1.650797 8.011419 5.812272 -19.096824 -29.538810 -5.078492 -12.459575 6.155599 51.165255 0.000000 0.000000 0.000000 7.125000 0.000000 0.000000 59.815565 75.257326 -45.943182
16.511727 19.679125 20.741456 178.228000 -3.086844 -153.255229 0.000000 0.000000 0.000000 -21.180652 -14.255788 -21.218798 0.215353 2.987344 8.243528 -0.062578 -7.499243 -3.712229 0.580324 -4.877391 -13.559180 0.000000 0.000000 0.000000 19.086620 13.790666 -20.053847 -0.140124 -2.412520 6.647136 -1.170146 3.579287 -19.572015 -1.527535 7.803550 -22.118952 -6.332341 -2.471588 -30.534645 0.342169 -1.745969 -1.121847 3.032748 -1.486834 14.946288 -1.084346 -1.877532 -4.485169 5.205490 -3.667085 13.091964 1.565312 -1.766430 4.775543 0.000000 0.000000 0.000000 5.546661 1.623101 -21.602478 12.648702 -20.770354 2.327208 21.286088 -1.296296 12.231925 0.000000 0.000000 0.000000 -7.125000 0.000000 0.000000 -4.125719 16.903744 -2.755078 0.000000 0.000000 0.000000 1.662401 7.968298 5.772598 -19.068246 -29.503338 -5.064435 -12.376990 6.139130 51.285560 0.000000 0.000000 0.000000 7.125000 0.000000 0.000000 60.292180 75.274257 -46.378600
16.510531 19.678870 20.737645 178.232629 -3.053436 -153.269477 0.000000 0.000000 0.000000 -21.190352 -14.248452 -21.168440 0.213424 2.974099 8.206601 -0.059695 -7.431548 -3.727576 0.610289 -5.000228 -13.909077 0.000000 0.000000 0.000000 19.078200 13.821620 -20.020394 -0.140520 -2.415807 6.656271 -1.172917 3.586145 -19.594978 -1.521605 7.789058 -22.075185 -6.320219 -2.461222 -30.550053 0.332373 -1.732927 -1.111522 3.020359 -1.480274 14.963498 -0.963893 -1.836772 -4.639790 5.131493 -3.597624 13.042620 1.525250 -1.724311 4.781274 0.000000 0.000000 0.000000 5.517945 1.665274 -21.533241 12.682871 -20.820743 2.339342 21.280490 -1.252833 12.180548 0.000000 0.000000 0.000000 -7.125000 0.000000 0.000000 -4.127794 16.958868 -2.751516 0.000000 0.000000 0.000000 1.691291 7.906672 5.623149 -19.020349 -29.443908 -5.040869 -12.255383 6.205322 51.466088 0.000000 0.000000 0.000000 7.125000 0.000000 0.000000 61.007100 75.299564 -47.033224
16.509936 19.678616 20.734586 178.272568 -2.993359 -153.282224 0.000000 0.000000 0.000000 -21.155427 -14.253210 -21.111847 0.211045 2.957699 8.160884 -0.051028 -7.200756 -3.752389 0.605021 -4.978899 -13.848490 0.000000 0.000000 0.000000 19.106666 13.912373 -19.972893 -0.140690 -2.417591 6.661200 -1.174786 3.577902 -19.612908 -1.524240 7.795602 -22.094899 -6.297956 -2.437259 -30.525496 0.347668 -1.717632 -1.138459 3.032086 -1.472286 14.919481 -0.939675 -1.909001 -4.650922 5.090026 -3.697045 13.076440 1.502392 -1.774447 4.795720 0.000000 0.000000 0.000000 5.458802 1.776336 -21.470614 12.727483 -20.886684 2.355232 21.297655 -1.245355 12.124890 0.000000 0.000000 0.000000 -7.125000 0.000000 0.000000 -4.113944 17.016396 -2.736985 0.000000 0.000000 0.000000 1.685173 7.883134 5.488124 -18.975907 -29.388759 -5.019030 -12.191397 6.283159 51.523786 0.000000 0.000000 0.000000 7.125000 0.000000 0.000000 61.250383 75.297524 -47.245662
16.509581 19.678999 20.733123 178.314900 -2.960493 -153.267838 0.000000 0.000000 0.000000 -21.109171 -14.250468 -21.132579 0.212017 2.964520 8.179965 -0.039567 -7.062053 -3.944142 0.832368 -5.804085 -16.221314 0.000000 0.000000 0.000000 19.152769 13.890449 -19.993780 -0.140301 -2.414029 6.651286 -1.201872 3.761498 -19.818048 -1.397918 7.477520 -21.139063 -6.266037 -2.407631 -30.521047 0.350276 -1.695234 -1.162364 3.026895 -1.460548 14.886716 -0.837573 -2.030307 -4.676098 4.961975 -3.879936 13.269141 1.434128 -1.868551 4.861078 0.000000 0.000000 0.000000 5.477464 1.823319 -21.514999 12.750070 -20.919907 2.363302 21.236616 -1.265329 12.073700 0.000000 0.000000 0.000000 -7.125000 0.000000 0.000000 -4.154676 17.076398 -2.758763 0.000000 0.000000 0.000000 1.706027 7.871406 5.407921 -18.956362 -29.364413 -5.009401 -12.136987 6.269865 51.429466 0.000000 0.000000 0.000000 7.125000 0.000000 0.000000 60.946321 75.239705 -46.916978
